<mxfile host="www.draw.io" modified="2020-03-03T15:24:36.778Z" agent="Mozilla/5.0 (X11; Linux x86_64) AppleWebKit/537.36 (KHTML, like Gecko) Chrome/80.0.3987.122 Safari/537.36" etag="hN0zDkVoD2WfZ4NEd_iS" version="12.7.9" type="github">
  <diagram id="KAdQ4zuXOhQmlQB0jqn_" name="Page-1">
    <mxGraphModel dx="1422" dy="741" grid="1" gridSize="10" guides="1" tooltips="1" connect="1" arrows="1" fold="1" page="1" pageScale="1" pageWidth="827" pageHeight="1169" math="0" shadow="0">
      <root>
        <mxCell id="0" />
        <mxCell id="1" parent="0" />
        <mxCell id="qkEaT89xuoA2V17u_yvj-1" value="&lt;b style=&quot;font-size: 230px;&quot;&gt;&lt;font color=&quot;#ffffff&quot; style=&quot;font-size: 230px;&quot;&gt;N&lt;/font&gt;&lt;/b&gt;" style="ellipse;whiteSpace=wrap;html=1;aspect=fixed;strokeColor=none;fillColor=#007FFF;fontSize=230;fontStyle=2;verticalAlign=middle;align=center;" parent="1" vertex="1">
          <mxGeometry x="10" y="10" width="300" height="300" as="geometry" />
        </mxCell>
      </root>
    </mxGraphModel>
  </diagram>
</mxfile>
